<?xml version="1.0" encoding="utf-8"?>
<!-- Generator: Adobe Illustrator 28.0.0, SVG Export Plug-In . SVG Version: 6.00 Build 0)  -->
<svg version="1.1" id="addIcon" xmlns="http://www.w3.org/2000/svg" xmlns:xlink="http://www.w3.org/1999/xlink" x="0px" y="0px"
	 viewBox="0 0 733.3 733.3" style="enable-background:new 0 0 733.3 733.3;" xml:space="preserve">
<path style="fill:#FFFFFF;" d="M333.3,233.3c0-18.4,14.9-33.3,33.3-33.3s33.3,14.9,33.3,33.3v100h100c18.4,0,33.3,14.9,33.3,33.3
	S518.4,400,500,400H400v100c0,18.4-14.9,33.3-33.3,33.3s-33.3-14.9-33.3-33.3V400h-100c-18.4,0-33.3-14.9-33.3-33.3
	s14.9-33.3,33.3-33.3h100V233.3z"/>
<path style="fill-rule:evenodd;clip-rule:evenodd;fill:#FFFFFF;" d="M733.3,366.7c0,202.5-164.2,366.7-366.7,366.7
	C164.2,733.3,0,569.2,0,366.7C0,164.2,164.2,0,366.7,0C569.2,0,733.3,164.2,733.3,366.7z M66.9,366.7
	c0,165.6,134.2,299.8,299.8,299.8c165.6,0,299.8-134.2,299.8-299.8c0-165.6-134.2-299.8-299.8-299.8
	C201.1,66.9,66.9,201.1,66.9,366.7z"/>
</svg>
