<?xml version="1.0" encoding="utf-8"?>
<!-- Generator: Adobe Illustrator 28.0.0, SVG Export Plug-In . SVG Version: 6.00 Build 0)  -->
<svg version="1.1" id="trashIcon" xmlns="http://www.w3.org/2000/svg" xmlns:xlink="http://www.w3.org/1999/xlink" x="0px" y="0px"
	 viewBox="0 0 26 26" style="enable-background:new 0 0 26 26;" xml:space="preserve">
<path style="fill:#FFFFFF;" d="M11,0c-0.8,0-1.7,0.2-2.2,0.8C8.2,1.3,8,2.1,8,3H4C3.4,3,3,3.4,3,4H2v2h22V4h-1c0-0.6-0.4-1-1-1h-4
	c0-0.9-0.2-1.7-0.8-2.3C16.7,0.1,15.8,0,15,0H11z M11,2h4c0.5,0,0.7,0.1,0.8,0.2S16,2.4,16,3h-6c0-0.6,0.1-0.7,0.2-0.8S10.5,2,11,2z
	 M4,7v16c0,1.7,1.3,3,3,3h12c1.7,0,3-1.3,3-3V7H4z M8,10h2v12H8V10z M12,10h2v12h-2V10z M16,10h2v12h-2V10z"/>
</svg>
