<?xml version="1.0" encoding="utf-8"?>
<!-- Generator: Adobe Illustrator 28.0.0, SVG Export Plug-In . SVG Version: 6.00 Build 0)  -->
<svg version="1.1" id="Calque_1" xmlns="http://www.w3.org/2000/svg" xmlns:xlink="http://www.w3.org/1999/xlink" x="0px" y="0px"
	 viewBox="0 0 800 800" style="enable-background:new 0 0 800 800;" xml:space="preserve">
<path style="fill-rule:evenodd;clip-rule:evenodd;fill:#FFFFFF;" d="M333.3,266.7c0-92,74.6-166.7,166.7-166.7
	s166.7,74.6,166.7,166.7c0,92-74.6,166.7-166.7,166.7S333.3,358.7,333.3,266.7z M500,166.7c-55.2,0-100,44.8-100,100
	s44.8,100,100,100s100-44.8,100-100S555.2,166.7,500,166.7z"/>
<path style="fill:#FFFFFF;" d="M166.7,266.7c18.4,0,33.3,14.9,33.3,33.3v66.7h66.7c18.4,0,33.3,14.9,33.3,33.3
	c0,18.4-14.9,33.3-33.3,33.3H200V500c0,18.4-14.9,33.3-33.3,33.3s-33.3-14.9-33.3-33.3v-66.7H66.7c-18.4,0-33.3-14.9-33.3-33.3
	c0-18.4,14.9-33.3,33.3-33.3h66.7V300C133.3,281.6,148.3,266.7,166.7,266.7z"/>
<path style="fill-rule:evenodd;clip-rule:evenodd;fill:#FFFFFF;" d="M500,466.7c-66.5,0-130.2,8.5-178.5,30
	c-49.3,21.9-88.1,60.5-88.1,120c0,15.6,2.8,33.3,13.4,50.1c10.6,16.9,26.8,29.7,47.8,39.2c40.3,18.2,104.9,27.4,205.4,27.4
	s165.1-9.1,205.4-27.4c21-9.5,37.3-22.3,47.8-39.2c10.6-16.9,13.4-34.6,13.4-50.1c0-59.5-38.8-98.2-88.1-120
	C630.2,475.1,566.5,466.7,500,466.7z M300,616.7c0-23.8,13.4-43.5,48.5-59.1c36.1-16,89.1-24.2,151.5-24.2s115.4,8.2,151.5,24.2
	c35.1,15.6,48.5,35.3,48.5,59.1c0,7.5-1.3,11.7-3.2,14.7c-1.9,3.1-6.5,8.2-18.8,13.8c-26.4,11.9-78.5,21.4-177.9,21.4
	s-151.6-9.5-177.9-21.4c-12.3-5.6-16.9-10.8-18.8-13.8C301.3,628.3,300,624.1,300,616.7z"/>
</svg>
